<svg width="156" height="40" viewBox="0 0 156 40" fill="none" xmlns="http://www.w3.org/2000/svg">
<rect width="20" height="40" rx="4" fill="#DB4444"/>
<path d="M44.8627 13.06V23.36C44.8627 24.5067 44.5094 25.4267 43.8027 26.12C43.0961 26.8 42.1627 27.14 41.0027 27.14C39.8294 27.14 38.8894 26.7933 38.1827 26.1C37.4761 25.3933 37.1227 24.4333 37.1227 23.22H38.9427C38.9561 23.9 39.1294 24.4533 39.4627 24.88C39.8094 25.3067 40.3227 25.52 41.0027 25.52C41.6827 25.52 42.1894 25.32 42.5227 24.92C42.8561 24.5067 43.0227 23.9867 43.0227 23.36V13.06H44.8627ZM58.1682 16.04V27H56.3482V25.38C56.0015 25.94 55.5149 26.38 54.8882 26.7C54.2749 27.0067 53.5949 27.16 52.8482 27.16C51.9949 27.16 51.2282 26.9867 50.5482 26.64C49.8682 26.28 49.3282 25.7467 48.9282 25.04C48.5415 24.3333 48.3482 23.4733 48.3482 22.46V16.04H50.1482V22.22C50.1482 23.3 50.4215 24.1333 50.9682 24.72C51.5149 25.2933 52.2615 25.58 53.2082 25.58C54.1815 25.58 54.9482 25.28 55.5082 24.68C56.0682 24.08 56.3482 23.2067 56.3482 22.06V16.04H58.1682ZM65.1212 27.18C64.2812 27.18 63.5278 27.04 62.8612 26.76C62.1945 26.4667 61.6678 26.0667 61.2812 25.56C60.8945 25.04 60.6812 24.4467 60.6412 23.78H62.5212C62.5745 24.3267 62.8278 24.7733 63.2812 25.12C63.7478 25.4667 64.3545 25.64 65.1012 25.64C65.7945 25.64 66.3412 25.4867 66.7412 25.18C67.1412 24.8733 67.3412 24.4867 67.3412 24.02C67.3412 23.54 67.1278 23.1867 66.7012 22.96C66.2745 22.72 65.6145 22.4867 64.7212 22.26C63.9078 22.0467 63.2412 21.8333 62.7212 21.62C62.2145 21.3933 61.7745 21.0667 61.4012 20.64C61.0412 20.2 60.8612 19.6267 60.8612 18.92C60.8612 18.36 61.0278 17.8467 61.3612 17.38C61.6945 16.9133 62.1678 16.5467 62.7812 16.28C63.3945 16 64.0945 15.86 64.8812 15.86C66.0945 15.86 67.0745 16.1667 67.8212 16.78C68.5678 17.3933 68.9678 18.2333 69.0212 19.3H67.2012C67.1612 18.7267 66.9278 18.2667 66.5012 17.92C66.0878 17.5733 65.5278 17.4 64.8212 17.4C64.1678 17.4 63.6478 17.54 63.2612 17.82C62.8745 18.1 62.6812 18.4667 62.6812 18.92C62.6812 19.28 62.7945 19.58 63.0212 19.82C63.2612 20.0467 63.5545 20.2333 63.9012 20.38C64.2612 20.5133 64.7545 20.6667 65.3812 20.84C66.1678 21.0533 66.8078 21.2667 67.3012 21.48C67.7945 21.68 68.2145 21.9867 68.5612 22.4C68.9212 22.8133 69.1078 23.3533 69.1212 24.02C69.1212 24.62 68.9545 25.16 68.6212 25.64C68.2878 26.12 67.8145 26.5 67.2012 26.78C66.6012 27.0467 65.9078 27.18 65.1212 27.18ZM73.9104 17.54V24C73.9104 24.5333 74.0237 24.9133 74.2504 25.14C74.4771 25.3533 74.8704 25.46 75.4304 25.46H76.7704V27H75.1304C74.1171 27 73.3571 26.7667 72.8504 26.3C72.3437 25.8333 72.0904 25.0667 72.0904 24V17.54H70.6704V16.04H72.0904V13.28H73.9104V16.04H76.7704V17.54H73.9104ZM92.1876 13.06V14.54H86.1276V19.24H91.0476V20.72H86.1276V27H84.3076V13.06H92.1876ZM99.1657 27.18C98.139 27.18 97.2057 26.9467 96.3657 26.48C95.539 26.0133 94.8857 25.3533 94.4057 24.5C93.939 23.6333 93.7057 22.6333 93.7057 21.5C93.7057 20.38 93.9457 19.3933 94.4257 18.54C94.919 17.6733 95.5857 17.0133 96.4257 16.56C97.2657 16.0933 98.2057 15.86 99.2457 15.86C100.286 15.86 101.226 16.0933 102.066 16.56C102.906 17.0133 103.566 17.6667 104.046 18.52C104.539 19.3733 104.786 20.3667 104.786 21.5C104.786 22.6333 104.532 23.6333 104.026 24.5C103.532 25.3533 102.859 26.0133 102.006 26.48C101.152 26.9467 100.206 27.18 99.1657 27.18ZM99.1657 25.58C99.819 25.58 100.432 25.4267 101.006 25.12C101.579 24.8133 102.039 24.3533 102.386 23.74C102.746 23.1267 102.926 22.38 102.926 21.5C102.926 20.62 102.752 19.8733 102.406 19.26C102.059 18.6467 101.606 18.1933 101.046 17.9C100.486 17.5933 99.879 17.44 99.2257 17.44C98.559 17.44 97.9457 17.5933 97.3857 17.9C96.839 18.1933 96.399 18.6467 96.0657 19.26C95.7324 19.8733 95.5657 20.62 95.5657 21.5C95.5657 22.3933 95.7257 23.1467 96.0457 23.76C96.379 24.3733 96.819 24.8333 97.3657 25.14C97.9124 25.4333 98.5124 25.58 99.1657 25.58ZM108.999 17.82C109.319 17.1933 109.772 16.7067 110.359 16.36C110.959 16.0133 111.685 15.84 112.539 15.84V17.72H112.059C110.019 17.72 108.999 18.8267 108.999 21.04V27H107.179V16.04H108.999V17.82ZM129.732 13.06L125.192 21.74V27H123.372V21.74L118.812 13.06H120.832L124.272 20.12L127.712 13.06H129.732ZM136.431 27.18C135.405 27.18 134.471 26.9467 133.631 26.48C132.805 26.0133 132.151 25.3533 131.671 24.5C131.205 23.6333 130.971 22.6333 130.971 21.5C130.971 20.38 131.211 19.3933 131.691 18.54C132.185 17.6733 132.851 17.0133 133.691 16.56C134.531 16.0933 135.471 15.86 136.511 15.86C137.551 15.86 138.491 16.0933 139.331 16.56C140.171 17.0133 140.831 17.6667 141.311 18.52C141.805 19.3733 142.051 20.3667 142.051 21.5C142.051 22.6333 141.798 23.6333 141.291 24.5C140.798 25.3533 140.125 26.0133 139.271 26.48C138.418 26.9467 137.471 27.18 136.431 27.18ZM136.431 25.58C137.085 25.58 137.698 25.4267 138.271 25.12C138.845 24.8133 139.305 24.3533 139.651 23.74C140.011 23.1267 140.191 22.38 140.191 21.5C140.191 20.62 140.018 19.8733 139.671 19.26C139.325 18.6467 138.871 18.1933 138.311 17.9C137.751 17.5933 137.145 17.44 136.491 17.44C135.825 17.44 135.211 17.5933 134.651 17.9C134.105 18.1933 133.665 18.6467 133.331 19.26C132.998 19.8733 132.831 20.62 132.831 21.5C132.831 22.3933 132.991 23.1467 133.311 23.76C133.645 24.3733 134.085 24.8333 134.631 25.14C135.178 25.4333 135.778 25.58 136.431 25.58ZM154.164 16.04V27H152.344V25.38C151.998 25.94 151.511 26.38 150.884 26.7C150.271 27.0067 149.591 27.16 148.844 27.16C147.991 27.16 147.224 26.9867 146.544 26.64C145.864 26.28 145.324 25.7467 144.924 25.04C144.538 24.3333 144.344 23.4733 144.344 22.46V16.04H146.144V22.22C146.144 23.3 146.418 24.1333 146.964 24.72C147.511 25.2933 148.258 25.58 149.204 25.58C150.178 25.58 150.944 25.28 151.504 24.68C152.064 24.08 152.344 23.2067 152.344 22.06V16.04H154.164Z" fill="black"/>
</svg>
